M48
; DRILL file {KiCad 9.0.5} date 2026-01-11T14:25:44+0100
; FORMAT={-:-/ absolute / metric / decimal}
; #@! TF.CreationDate,2026-01-11T14:25:44+01:00
; #@! TF.GenerationSoftware,Kicad,Pcbnew,9.0.5
; #@! TF.FileFunction,Plated,1,2,PTH
FMAT,2
METRIC
; #@! TA.AperFunction,Plated,PTH,ViaDrill
T1C0.400
; #@! TA.AperFunction,Plated,PTH,ComponentDrill
T2C0.800
; #@! TA.AperFunction,Plated,PTH,ComponentDrill
T3C1.000
; #@! TA.AperFunction,Plated,PTH,ComponentDrill
T4C1.300
; #@! TA.AperFunction,Plated,PTH,ComponentDrill
T5C3.200
%
G90
G05
T1
X95.0Y-92.25
X95.2Y-49.25
X95.2Y-50.5
X95.2Y-51.75
X95.25Y-82.1
X95.25Y-83.35
X95.25Y-84.6
X95.25Y-135.2
X95.25Y-136.45
X95.25Y-137.7
X96.45Y-49.25
X96.45Y-50.5
X96.45Y-51.75
X96.5Y-82.1
X96.5Y-83.35
X96.5Y-84.6
X96.5Y-135.2
X96.5Y-136.45
X96.5Y-137.7
X97.7Y-49.25
X97.7Y-50.5
X97.7Y-51.75
X97.75Y-82.1
X97.75Y-83.35
X97.75Y-84.6
X97.75Y-135.2
X97.75Y-136.45
X97.75Y-137.7
X98.8Y-101.9
X98.8Y-103.15
X98.8Y-104.4
X98.95Y-92.25
X100.0Y-109.5
X100.0Y-113.25
X100.0Y-116.75
X100.0Y-120.0
X100.0Y-123.25
X100.05Y-101.9
X100.05Y-103.15
X100.05Y-104.4
X101.3Y-101.9
X101.3Y-103.15
X101.3Y-104.4
X102.4Y-48.4
X102.4Y-51.4
X104.25Y-94.2
X104.25Y-109.5
X104.25Y-113.25
X104.25Y-116.75
X104.25Y-120.0
X104.5Y-88.35
X106.0Y-48.4
X106.0Y-51.4
X108.1Y-85.35
X108.1Y-88.35
X108.25Y-106.0
X108.25Y-109.5
X108.25Y-113.25
X108.25Y-116.75
X108.25Y-120.75
X108.5Y-138.0
X108.611Y-100.861
X109.236Y-100.236
X109.65Y-48.4
X109.65Y-51.4
X109.861Y-99.611
X110.1Y-54.45
X110.1Y-57.95
X111.0Y-120.75
X111.0Y-122.5
X111.0Y-128.75
X111.75Y-85.35
X111.75Y-88.35
X112.2Y-104.5
X112.9Y-66.474
X112.9Y-69.774
X112.9Y-73.1
X113.05Y-76.75
X113.7Y-54.45
X113.7Y-57.95
X114.15Y-61.6
X115.25Y-120.0
X115.75Y-126.25
X115.8Y-104.5
X116.25Y-122.75
X116.35Y-66.35
X116.35Y-72.4
X116.5Y-127.25
X117.35Y-54.45
X117.35Y-57.95
X118.25Y-92.5
X118.25Y-97.75
X118.9Y-61.6
X119.45Y-104.5
X121.25Y-120.0
X121.35Y-48.35
X121.35Y-51.35
X121.35Y-54.45
X121.35Y-57.95
X121.35Y-61.45
X121.5Y-122.75
X121.5Y-126.25
X122.0Y-95.75
X122.0Y-97.75
X122.25Y-63.75
X122.25Y-66.5
X122.25Y-70.0
X122.25Y-73.15
X122.25Y-76.15
X122.3Y-86.15
X122.45Y-115.8
X122.5Y-108.35
X122.5Y-110.35
X122.5Y-112.0
X122.5Y-119.7
X122.75Y-137.25
X123.2Y-86.15
X124.0Y-86.15
X124.95Y-48.35
X124.95Y-51.35
X124.95Y-54.45
X124.95Y-57.95
X124.95Y-61.45
X125.0Y-95.75
X126.0Y-112.0
X126.0Y-137.25
X126.75Y-134.75
X126.75Y-138.5
X127.0Y-119.25
X127.25Y-128.25
X127.471Y-95.25
X127.471Y-96.25
X127.471Y-97.5
X127.5Y-115.25
X127.612Y-98.5
X127.688Y-106.75
X128.0Y-108.25
X128.0Y-116.75
X128.25Y-120.6
X128.5Y-126.25
X128.6Y-48.35
X128.6Y-51.35
X128.6Y-54.45
X128.6Y-57.95
X128.6Y-61.45
X129.75Y-129.05
X132.25Y-75.32
X132.55Y-122.5
X132.75Y-134.75
X132.75Y-139.0
X133.6Y-61.85
X133.65Y-122.5
X133.9Y-124.35
X134.95Y-124.35
X135.6Y-137.2
X135.7Y-119.55
X136.05Y-97.8
X136.05Y-100.8
X136.25Y-67.619
X137.505Y-86.68
X137.505Y-89.22
X137.505Y-91.76
X137.505Y-94.3
X139.65Y-97.8
X139.65Y-100.8
X139.7Y-76.45
X140.045Y-86.68
X140.045Y-89.22
X140.045Y-91.76
X140.045Y-94.3
X141.0Y-130.25
X141.5Y-132.431
X141.835Y-130.25
X142.194Y-132.431
X142.585Y-86.68
X142.585Y-89.22
X142.585Y-91.76
X142.585Y-94.3
X143.028Y-131.161
X143.282Y-124.811
X143.3Y-97.8
X143.3Y-100.8
X144.075Y-80.825
X145.0Y-122.5
X145.114Y-124.806
X145.125Y-86.68
X145.125Y-89.22
X145.125Y-91.76
X145.125Y-94.3
X145.95Y-80.6
X146.457Y-130.526
X146.479Y-120.339
X147.1Y-108.35
X147.1Y-111.25
X147.15Y-101.7
X147.2Y-104.9
X147.429Y-117.614
X147.471Y-124.731
X148.05Y-54.65
X150.6Y-137.25
X151.7Y-115.8
X152.775Y-48.61
X153.25Y-125.0
X153.35Y-63.05
X153.35Y-66.05
X153.925Y-113.7
X155.25Y-95.15
X155.25Y-97.95
X155.25Y-100.65
X155.4Y-54.2
X155.45Y-125.0
X156.45Y-82.15
X156.45Y-85.55
X156.45Y-88.55
X156.95Y-63.05
X156.95Y-66.05
X157.25Y-117.25
X157.25Y-119.75
X157.25Y-122.25
X157.25Y-126.25
X158.25Y-48.61
X158.75Y-74.85
X159.338Y-131.75
X159.35Y-133.95
X159.35Y-136.1
X159.35Y-138.25
X160.0Y-130.0
X160.05Y-82.15
X160.05Y-85.55
X160.05Y-88.55
X160.6Y-63.05
X160.6Y-66.05
X162.9Y-139.0
X163.45Y-130.25
X163.5Y-67.4
X163.6Y-126.1
X163.7Y-82.15
X163.7Y-85.55
X163.7Y-88.55
X163.7Y-91.95
X164.55Y-63.05
X164.55Y-66.05
X164.65Y-131.3
X165.3Y-135.9
X165.65Y-132.4
X166.35Y-47.5
X167.25Y-82.15
X167.25Y-85.55
X167.25Y-88.55
X167.25Y-91.95
X167.55Y-112.358
X168.15Y-66.05
X169.6Y-76.45
X170.05Y-54.15
X170.05Y-57.8
X170.85Y-82.15
X170.85Y-85.55
X170.85Y-88.55
X170.85Y-91.95
X171.35Y-132.55
X171.35Y-139.0
X171.4Y-135.9
X172.25Y-117.65
X174.45Y-95.0
X174.45Y-98.0
X174.5Y-82.15
X174.5Y-85.55
X174.5Y-88.55
X174.5Y-91.95
X174.55Y-100.55
X175.0Y-110.15
X176.525Y-109.45
X176.95Y-46.5
X177.075Y-134.075
X177.475Y-82.725
X177.75Y-67.15
X177.9Y-134.9
X178.15Y-113.25
X178.45Y-138.95
X178.625Y-135.625
X178.7Y-110.5
X178.75Y-129.05
X178.8Y-112.15
X180.05Y-62.2
X180.05Y-64.25
X180.15Y-82.7
X180.4Y-117.65
X180.55Y-46.5
X180.55Y-49.9
X180.55Y-52.9
X181.85Y-67.888
X182.45Y-111.75
X183.95Y-82.75
X184.2Y-46.5
X184.2Y-49.9
X184.2Y-52.9
X187.05Y-111.75
X187.05Y-114.75
X187.2Y-62.15
X187.2Y-63.9
X187.2Y-65.45
X187.7Y-82.6
X187.75Y-46.5
X187.75Y-49.9
X187.75Y-52.9
X188.9Y-62.15
X188.9Y-63.9
X188.9Y-65.45
X188.9Y-141.65
X189.0Y-137.5
X189.85Y-86.9
X190.4Y-76.4
X190.55Y-114.75
X190.6Y-117.8
X190.9Y-67.25
X190.95Y-82.65
X191.35Y-46.5
X192.4Y-141.65
X192.55Y-65.05
X194.05Y-91.0
X194.05Y-96.5
X194.05Y-101.0
X194.4Y-108.95
X194.4Y-111.75
X194.45Y-117.8
X194.7Y-82.7
X195.0Y-46.5
X195.0Y-52.9
X196.25Y-141.65
X197.65Y-91.0
X197.65Y-96.5
X197.65Y-101.0
X197.7Y-66.3
X198.0Y-108.95
X198.0Y-111.75
X198.0Y-114.75
X198.05Y-117.8
X199.85Y-141.65
X200.9Y-87.0
X201.0Y-83.55
X201.75Y-96.5
X201.75Y-101.0
X202.1Y-108.95
X202.1Y-111.75
X202.1Y-114.75
X202.15Y-117.8
X202.828Y-68.522
X202.95Y-46.5
X202.95Y-50.0
X203.55Y-86.95
X203.7Y-83.55
X203.95Y-141.65
X205.7Y-51.05
T2
X152.8Y-104.49
X152.8Y-107.03
X153.412Y-51.59
X153.412Y-59.21
X155.34Y-104.49
X155.34Y-107.03
X155.952Y-51.59
X155.952Y-59.21
X157.88Y-104.49
X157.88Y-107.03
X158.493Y-51.59
X158.493Y-59.21
X160.42Y-104.49
X160.42Y-107.03
X161.032Y-51.59
X161.032Y-59.21
X162.96Y-104.49
X162.96Y-107.03
X165.5Y-71.47
X165.5Y-74.01
X165.5Y-104.49
X165.5Y-107.03
X168.04Y-71.47
X168.04Y-74.01
X168.04Y-104.49
X168.04Y-107.03
X170.58Y-71.47
X170.58Y-74.01
X170.58Y-104.49
X170.58Y-107.03
X173.12Y-71.47
X173.12Y-74.01
X173.12Y-104.49
X173.12Y-107.03
X175.66Y-71.47
X175.66Y-74.01
X175.66Y-104.49
X175.66Y-107.03
X178.2Y-71.47
X178.2Y-74.01
X178.2Y-104.49
X178.2Y-107.03
X180.74Y-71.47
X180.74Y-74.01
X180.74Y-104.49
X180.74Y-107.03
X183.28Y-71.47
X183.28Y-74.01
X183.28Y-104.49
X183.28Y-107.03
X185.82Y-71.47
X185.82Y-74.01
X185.82Y-104.49
X185.82Y-107.03
X188.36Y-71.47
X188.36Y-74.01
X188.36Y-104.49
X188.36Y-107.03
X190.9Y-71.47
X190.9Y-74.01
X190.9Y-104.49
X190.9Y-107.03
X191.0Y-121.21
X191.0Y-123.75
X191.0Y-126.29
X191.0Y-128.83
X191.0Y-131.37
X191.0Y-133.91
X191.0Y-136.45
X191.0Y-138.99
X193.44Y-71.47
X193.44Y-74.01
X193.44Y-104.49
X193.44Y-107.03
X195.98Y-71.47
X195.98Y-74.01
X195.98Y-104.49
X195.98Y-107.03
X198.52Y-71.47
X198.52Y-74.01
X198.52Y-104.49
X198.52Y-107.03
X201.06Y-71.47
X201.06Y-74.01
X201.06Y-76.55
X201.06Y-79.09
X201.06Y-81.63
X201.06Y-89.25
X201.06Y-91.79
X201.06Y-94.33
X201.06Y-104.49
X201.06Y-107.03
X203.6Y-71.47
X203.6Y-74.01
X203.6Y-76.55
X203.6Y-79.09
X203.6Y-81.63
X203.6Y-89.25
X203.6Y-91.79
X203.6Y-94.33
X203.6Y-104.49
X203.6Y-107.03
X203.7Y-121.21
X203.7Y-123.75
X203.7Y-126.29
X203.7Y-128.83
X203.7Y-131.37
X203.7Y-133.91
X203.7Y-136.45
X203.7Y-138.99
T3
X133.75Y-109.25
X133.75Y-111.79
X133.75Y-114.33
X140.5Y-47.96
X140.5Y-50.5
X140.5Y-57.96
X140.5Y-60.5
X144.2Y-47.96
X144.2Y-50.5
X144.2Y-53.04
X144.2Y-57.96
X144.2Y-60.5
X144.2Y-63.04
X159.56Y-114.5
X162.1Y-114.5
X164.64Y-114.5
X183.1Y-119.867
X183.1Y-122.407
X183.1Y-124.947
X183.1Y-127.487
X183.1Y-130.028
X183.1Y-132.567
X196.4Y-58.05
X198.94Y-58.05
X201.48Y-58.05
X204.02Y-58.05
T4
X97.832Y-107.441
X97.832Y-111.591
X97.832Y-114.921
X97.832Y-118.251
X97.832Y-121.581
X97.832Y-124.911
X97.832Y-128.241
X97.832Y-132.391
X97.832Y-54.101
X97.832Y-58.251
X97.832Y-61.581
X97.832Y-64.911
X97.832Y-68.241
X97.832Y-71.571
X97.832Y-74.901
X97.832Y-79.051
X102.032Y-107.441
X102.032Y-111.591
X102.032Y-114.921
X102.032Y-118.251
X102.032Y-121.581
X102.032Y-124.911
X102.032Y-128.241
X102.032Y-132.391
X102.032Y-54.101
X102.032Y-58.251
X102.032Y-61.581
X102.032Y-64.911
X102.032Y-68.241
X102.032Y-71.571
X102.032Y-74.901
X102.032Y-79.051
X106.232Y-107.441
X106.232Y-111.591
X106.232Y-114.921
X106.232Y-118.251
X106.232Y-121.581
X106.232Y-124.911
X106.232Y-128.241
X106.232Y-132.391
X106.232Y-54.101
X106.232Y-58.251
X106.232Y-61.581
X106.232Y-64.911
X106.232Y-68.241
X106.232Y-71.571
X106.232Y-74.901
X106.232Y-79.051
T5
X114.938Y-137.086
X114.95Y-50.05
X197.996Y-137.086
X198.0Y-50.1
M30
